<?xml version="1.0" encoding="UTF-8"?>
<svg width="20px" height="20px" viewBox="0 0 20 20" version="1.1" xmlns="http://www.w3.org/2000/svg" xmlns:xlink="http://www.w3.org/1999/xlink">
    <title>861BFD18-D26A-46B9-A0E8-D87C993ABFB1</title>
    <defs>
        <polygon id="path-1" points="1.06468276e-05 0 19.8560823 0 19.8560823 19.8956667 1.06468276e-05 19.8956667"></polygon>
    </defs>
    <g id="Page-1" stroke="none" stroke-width="1" fill="none" fill-rule="evenodd">
        <g id="rooms-copy" transform="translate(-529.000000, -613.000000)">
            <g id="Group-5" transform="translate(529.000000, 613.000000)">
                <mask id="mask-2" fill="white">
                    <use xlink:href="#path-1"></use>
                </mask>
                <g id="Clip-2"></g>
                <path d="M6.61955556,13.2202222 L18.7056667,13.2202222 L18.7056667,1.13466667 L6.61955556,1.13466667 L6.61955556,13.2202222 Z M19.8560823,0 C19.8560823,0.382333333 19.8395556,0.548777778 19.8408889,0.824 C19.8612222,5.055 19.8557778,9.28622222 19.8543333,13.5173333 C19.8541111,14.211 19.704,14.3635556 19.0185556,14.3637778 C14.7874444,14.3654444 10.5562222,14.3654444 6.32511111,14.3637778 C5.63922222,14.3635556 5.49133333,14.2124444 5.49111111,13.5166667 C5.48977778,9.28555556 5.48433333,5.05433333 5.50466667,0.823333333 C5.506,0.548444444 5.48944819,0.354444444 5.48944819,0 L19.8560823,0 Z" id="Fill-1" fill="#CFA500" mask="url(#mask-2)"></path>
                <path d="M2.58596667,0.188477778 C3.09496667,0.694811111 3.60341111,1.20181111 4.11396667,1.70647778 C4.37852222,1.96803333 4.51996667,2.2617 4.22741111,2.57136667 C3.91285556,2.90425556 3.59641111,2.77758889 3.32685556,2.48314444 C3.18141111,2.32425556 3.05296667,2.1497 2.91874444,1.98047778 C2.84018889,2.00803333 2.84018889,2.00803333 2.76174444,2.0357 L2.76174444,12.4292556 C3.01352222,12.1825889 3.20785556,11.9844778 3.41074444,11.7955889 C3.65863333,11.5645889 3.93652222,11.5112556 4.19607778,11.7567 C4.47618889,12.0215889 4.43885556,12.3182556 4.18285556,12.5805889 C3.68241111,13.0934778 3.16852222,13.5931444 2.66652222,14.1043667 C2.32607778,14.4510333 2.00652222,14.4375889 1.67152222,14.0943667 C1.17618889,13.5871444 0.674077778,13.0868111 0.173744444,12.5847 C-0.120811111,12.2892556 -0.0295888889,11.7699222 0.362411111,11.6270333 C0.8683,11.4425889 1.16274444,12.1974778 1.59085556,12.3410333 L1.59085556,1.99058889 C1.1543,2.21714444 0.864077778,2.91914444 0.3583,2.72736667 C-0.0274777778,2.58114444 -0.1147,2.06925556 0.177077778,1.77736667 L1.76485556,0.1897 C1.99141111,-0.0368555556 2.35885556,-0.0375222222 2.58596667,0.188477778" id="Fill-3" fill="#CFA500" mask="url(#mask-2)"></path>
                <path d="M18.1246,18.2490778 L7.40804444,18.2490778 C7.66826667,18.5151889 7.86448889,18.7097444 8.0536,18.9109667 C8.28593333,19.1583 8.34248889,19.4356333 8.0986,19.6971889 C7.83571111,19.9789667 7.53782222,19.9466333 7.2746,19.6891889 C6.73526667,19.1620778 6.20082222,18.6297444 5.67526667,18.0888556 C5.41448889,17.8204111 5.42348889,17.5237444 5.68482222,17.2573 C6.21271111,16.7187444 6.74515556,16.1844111 7.28515556,15.6580778 C7.52848889,15.4209667 7.81415556,15.3813 8.07015556,15.6306333 C8.34804444,15.9010778 8.30115556,16.1976333 8.04148889,16.4538556 C7.80682222,16.6856333 7.53015556,16.8748556 7.28671111,17.0976333 L18.0771556,17.0976333 C17.8202667,16.8621889 17.5183778,16.6711889 17.2740444,16.4233 C17.0347111,16.1806333 17.0106,15.8925222 17.2622667,15.6400778 C17.5141556,15.3875222 17.8021556,15.4116333 18.0471556,15.6484111 C18.5893778,16.1725222 19.1197111,16.7089667 19.6487111,17.2465222 C19.9316,17.5338556 19.9212667,17.8354111 19.6407111,18.1194111 C19.1234889,18.6427444 18.6041556,19.1640778 18.0792667,19.6796333 C17.8191556,19.9350778 17.5230444,19.9873 17.2546,19.7074111 C16.9848222,19.4261889 17.0564889,19.1295222 17.3201556,18.8845222 C17.5697111,18.6526333 17.8717111,18.4773 18.1246,18.2490778" id="Fill-4" fill="#CFA500" mask="url(#mask-2)"></path>
            </g>
        </g>
    </g>
</svg>