<?xml version="1.0" encoding="UTF-8"?>
<svg width="36px" height="20px" viewBox="0 0 36 20" version="1.1" xmlns="http://www.w3.org/2000/svg" xmlns:xlink="http://www.w3.org/1999/xlink">
    <title>14DD8A64-5C24-4CE6-9084-D3C843057808</title>
    <defs>
        <polygon id="path-1" points="0 0.126799729 35.3533178 0.126799729 35.3533178 18.8224299 0 18.8224299"></polygon>
    </defs>
    <g id="Page-1" stroke="none" stroke-width="1" fill="none" fill-rule="evenodd">
        <g id="rooms-copy" transform="translate(-267.000000, -614.000000)">
            <g id="Group-12" transform="translate(267.000000, 614.000000)">
                <g id="Group-3" transform="translate(0.000000, 0.050785)">
                    <mask id="mask-2" fill="white">
                        <use xlink:href="#path-1"></use>
                    </mask>
                    <g id="Clip-2"></g>
                    <path d="M2.11883738,18.7986888 C1.76831402,18.8072121 1.48686542,18.8139598 1.13651963,18.8224832 C0.267136449,18.3446421 -0.00738691589,17.6301 -7.61940425e-05,16.6614551 C0.0368280374,11.8519692 0.0169401869,7.04212804 0.0174728972,2.23246449 C0.0174728972,1.99789439 0.00308971963,1.76101589 0.0306130841,1.52928692 C0.123304673,0.748156075 0.733080374,0.170165421 1.48739813,0.129324299 C2.26249159,0.0872401869 2.90920187,0.574314953 3.07256636,1.36521215 C3.13684673,1.6772028 3.1370243,2.00552991 3.13773458,2.32657664 C3.14288411,4.70210935 3.1388,7.07764206 3.14270654,9.45317477 C3.14323925,9.7641 3.17129533,10.0752028 3.18816449,10.4191561 L32.2276224,10.4191561 C32.2276224,9.24062336 32.196015,8.10559533 32.2357907,6.97323084 C32.2814262,5.68016542 33.4216037,4.91874486 34.4729963,5.47702523 C34.8141084,5.65814673 35.062529,6.01257664 35.3533888,6.28763271 L35.3533888,16.6676701 C35.3533888,17.8385673 34.4040991,18.787857 33.2332019,18.787857 C31.6004449,17.7904458 32.5186598,16.0685486 32.1283607,14.7374832 L3.1405757,14.7374832 C3.1405757,15.4015953 3.10541682,16.0131467 3.14874393,16.6191935 C3.21533271,17.5494832 2.91683738,18.2826701 2.11883738,18.7986888" id="Fill-1" fill="#CFA500" mask="url(#mask-2)"></path>
                </g>
                <path d="M10.1171271,3.47353738 C10.1343514,1.93755607 8.94214579,0.715163551 7.41823925,0.706239655 C5.91137944,0.697584112 4.65294019,1.94092991 4.65489119,3.43624766 C4.6570243,4.8978271 5.86751963,6.12767757 7.33655701,6.15999533 C8.86046355,6.19373364 10.1000804,4.99620093 10.1171271,3.47353738 M10.6253327,6.69075234 C9.05383738,6.69075234 7.61605234,6.68435981 6.17826729,6.69288318 C5.14232336,6.69909813 4.50644486,7.2449486 4.51798692,8.09302336 C4.52899626,8.90753738 5.14250093,9.45835981 6.12765981,9.4679486 C8.00865981,9.48606075 9.89001495,9.4869486 11.7708374,9.46812617 C12.8794075,9.45693925 13.4023514,8.93878972 13.4186879,7.85259346 C13.4385757,6.53502336 13.4352019,5.21674299 13.4201084,3.89899533 C13.4082112,2.85079907 12.8653794,2.25434112 11.9853421,2.27493925 C11.1445477,2.29500467 10.6422019,2.87778972 10.6281738,3.88230374 C10.6153888,4.78418224 10.6253327,5.68641589 10.6253327,6.69075234 M14.4913888,2.2687243 L14.4913888,9.40402336 L31.2548935,9.40402336 C31.2548935,8.22407009 31.2717626,7.11301402 31.2513421,6.00266822 C31.2097907,3.75303271 29.7100336,2.28026636 27.4463701,2.27174299 C24.4726037,2.26073364 21.4988374,2.26890187 18.525071,2.2687243 C17.2048374,2.2687243 15.8846037,2.2687243 14.4913888,2.2687243" id="Fill-4" fill="#CFA500"></path>
                <path d="M14.4913533,2.26877757 C15.8847458,2.26877757 17.2048019,2.26877757 18.5250355,2.26877757 C21.4988019,2.26877757 24.4725682,2.26078692 27.4463346,2.27179626 C29.7099981,2.28014206 31.2097551,3.75308598 31.2513065,6.0027215 C31.2717271,7.11306729 31.2548579,8.22412336 31.2548579,9.40407664 L14.4913533,9.40407664 L14.4913533,2.26877757 Z" id="Fill-6" fill="#CFA500"></path>
                <path d="M10.625386,6.69068131 C10.625386,5.68634486 10.6152645,4.78411121 10.6282271,3.88223271 C10.6422551,2.87771869 11.1446009,2.29493364 11.9853953,2.27504579 C12.8652551,2.25427009 13.4082645,2.85072804 13.4199841,3.8989243 C13.4350776,5.21667196 13.438629,6.53495234 13.4185636,7.85252243 C13.4024047,8.93889626 12.8792832,9.45704579 11.7708907,9.46805514 C9.88989065,9.48687757 8.00871308,9.48616729 6.12771308,9.46787757 C5.14255421,9.45828879 4.52904953,8.90746636 4.51786262,8.09295234 C4.50649813,7.24505514 5.14237664,6.6990271 6.17832056,6.69281215 C7.61610561,6.68428879 9.05371308,6.69068131 10.625386,6.69068131" id="Fill-8" fill="#CFA500"></path>
                <path d="M10.1171271,3.47353738 C10.1000804,4.99620093 8.86046355,6.19373364 7.33655701,6.15999533 C5.86751963,6.12767757 4.6570243,4.8978271 4.65489119,3.43624766 C4.65294019,1.94092991 5.91137944,0.697584112 7.41823925,0.706239655 C8.94214579,0.715163551 10.1343514,1.93755607 10.1171271,3.47353738" id="Fill-10" fill="#CFA500"></path>
            </g>
        </g>
    </g>
</svg>