<?xml version="1.0" encoding="UTF-8"?>
<svg width="21px" height="21px" viewBox="0 0 21 21" version="1.1" xmlns="http://www.w3.org/2000/svg" xmlns:xlink="http://www.w3.org/1999/xlink">
    <title>9EFBA639-EBAE-4AD9-892A-B2574ADAC4E7</title>
    <g id="Page-1" stroke="none" stroke-width="1" fill="none" fill-rule="evenodd">
        <g id="Aeraki-Refresh-&amp;-Reconnect" transform="translate(-849.000000, -6150.000000)" fill="#CFA500">
            <path d="M859.875369,6162.22466 C860.660642,6162.21303 861.474869,6161.29802 861.431876,6160.47513 C861.391516,6159.68622 860.576412,6158.90895 859.792016,6158.90984 C858.747911,6158.91163 858.138995,6159.56458 858.167072,6160.65133 C858.191639,6161.61018 858.874256,6162.23897 859.875369,6162.22466 M857.189649,6170.06627 C856.435963,6170.60026 855.439237,6170.62441 854.606584,6170.23085 L854.400395,6170.13335 C853.122024,6169.5296 852.562243,6167.94196 853.242228,6166.68348 C853.675663,6165.88295 854.231935,6165.14235 854.775923,6164.41069 C855.201461,6163.83914 855.723514,6163.34183 856.201697,6162.81142 C856.399989,6162.53772 856.302598,6162.46795 855.990244,6162.54845 C855.307627,6162.76759 854.638171,6163.08691 853.938883,6163.18261 C853.02551,6163.30784 852.061248,6163.41249 851.170687,6163.24254 C849.987075,6163.01625 849.128978,6162.28727 849.016671,6160.90088 C848.914015,6159.64061 849.271994,6158.57264 850.466135,6158.16209 C851.351432,6157.85798 852.365706,6157.78016 853.305401,6157.85171 C854.29774,6157.92774 855.269021,6158.30073 856.572837,6158.62362 C856.206084,6158.16745 856.077984,6157.92148 855.878814,6157.773 C854.655719,6156.85799 853.79148,6155.65853 853.151856,6154.27661 C852.700872,6153.30256 852.986905,6152.07091 853.823944,6151.28648 C854.781187,6150.38667 855.640161,6150.31869 856.749194,6150.93228 C858.223226,6151.74623 858.804064,6153.12009 859.151515,6154.66749 C859.260312,6155.1487 859.372619,6155.62812 859.482294,6156.10933 C859.606885,6156.51094 859.705154,6156.38751 859.794649,6156.09681 C859.906956,6155.70952 860.001715,6155.31596 860.134202,6154.93671 C860.692229,6153.34192 861.241481,6151.75338 862.840103,6150.78201 C863.418309,6150.4305 864.116719,6150.40903 864.72037,6150.70956 C865.569693,6151.13353 866.27249,6151.67735 866.394449,6152.79004 C866.581335,6154.47339 865.856603,6155.71757 864.742305,6156.81684 C864.274651,6157.27837 863.792959,6157.72739 863.317408,6158.18177 C863.112974,6158.3535 863.156844,6158.58069 863.477973,6158.48409 C863.951768,6158.36781 864.423809,6158.24527 864.898483,6158.13525 C865.72587,6157.94295 866.483944,6157.79268 867.170948,6157.76048 C870.615619,6157.59948 871.078886,6163.05202 867.649131,6163.41785 C866.898954,6163.49746 866.045244,6163.32215 864.994997,6162.92233 C864.570335,6162.76044 864.058811,6162.83557 863.412168,6162.78816 C864.401874,6164.0547 865.238036,6165.06006 866.000497,6166.11997 C866.683114,6167.06898 866.483944,6168.70314 865.637253,6169.75948 C865.03448,6170.51171 863.794714,6170.67986 862.674274,6170.18165 C861.44767,6169.63694 860.943165,6168.55197 860.547458,6167.35252 C860.35092,6166.75503 860.056114,6166.19153 859.805177,6165.61193 C859.746392,6165.39905 859.549854,6165.41426 859.476153,6165.64592 C859.333136,6166.01264 859.208546,6166.3892 859.04184,6166.7443 C858.577695,6167.73356 858.182865,6168.7738 857.587989,6169.6745 C857.487088,6169.82745 857.348458,6169.95357 857.189649,6170.06627" id="Fill-1-Copy-2"></path>
        </g>
    </g>
</svg>