<svg id="Group_3" data-name="Group 3" xmlns="http://www.w3.org/2000/svg" xmlns:xlink="http://www.w3.org/1999/xlink" width="26.928" height="19.988" viewBox="0 0 26.928 19.988">
  <defs>
    <clipPath id="clip-path">
      <path id="Clip_2" data-name="Clip 2" d="M0,0H26.928V19.988H0Z" transform="translate(0 0)" fill="none"/>
    </clipPath>
  </defs>
  <path id="Clip_2-2" data-name="Clip 2" d="M0,0H26.928V19.988H0Z" transform="translate(0 0)" fill="none"/>
  <g id="Group_3-2" data-name="Group 3" clip-path="url(#clip-path)">
    <path id="Fill_1" data-name="Fill 1" d="M3.21,19.988a7.31,7.31,0,0,1-1.393-.135,1,1,0,0,1-.876-.914c-.063-.585-.1-1.188-.1-1.791C.828,15.69.831,14.208.834,12.775v-.8A9.5,9.5,0,0,1,1.45,8.819c.059-.169.11-.336.164-.513.027-.089.055-.18.084-.27A2.039,2.039,0,0,1,.2,6.863,2.007,2.007,0,0,1,.01,6.235a.993.993,0,0,1,.7-1.069A2.9,2.9,0,0,1,1.8,4.985c.186,0,.372.01.513.02l.036,0a1.725,1.725,0,0,1,.338.044.353.353,0,0,0,.091.013A.225.225,0,0,0,2.991,4.9c.194-.432.391-.878.6-1.363.093-.212.184-.429.272-.639.178-.425.363-.863.57-1.282A2.763,2.763,0,0,1,7.1.029q1.126,0,2.252,0l1.971,0,2.439-.01C14.964.008,16.2,0,17.423,0h.531c.59,0,1.225,0,1.871.032A3.029,3.029,0,0,1,22.409,1.47a4.93,4.93,0,0,1,.348.712c.29.689.582,1.394.864,2.076l.34.821.223-.022c.176-.018.357-.036.539-.048.15-.01.281-.014.4-.014a2.828,2.828,0,0,1,1.089.186,1.015,1.015,0,0,1,.639,1.362,2.1,2.1,0,0,1-1.526,1.463c-.022.005-.045.012-.067.019l-.022.007a.029.029,0,0,0-.012.009l-.012.011q.069.208.139.418c.094.28.189.567.28.851a9.83,9.83,0,0,1,.431,2.945c0,.886.016,1.786.028,2.657.011.825.023,1.674.028,2.51a7.856,7.856,0,0,1-.105,1.242,1.26,1.26,0,0,1-1.2,1.21,7.183,7.183,0,0,1-2.243.023,1.2,1.2,0,0,1-1.139-1.241c-.022-.325-.025-.655-.028-.975,0-.137,0-.271-.005-.4,0-.074,0-.148,0-.227,0-.041,0-.084,0-.128H5.5v.293c0,.242,0,.47,0,.7s-.005.432-.013.625A1.211,1.211,0,0,1,4.339,19.9,7.214,7.214,0,0,1,3.21,19.988Zm.707-8.413h0a1.413,1.413,0,0,0-1.421,1.4,1.427,1.427,0,0,0,2.447,1.005,1.384,1.384,0,0,0,.415-.985A1.418,1.418,0,0,0,3.92,11.577Zm19.072,0h-.011a1.437,1.437,0,0,0-1.006.43,1.374,1.374,0,0,0-.406.979,1.44,1.44,0,0,0,1.426,1.42H23a1.442,1.442,0,0,0,1.014-.426A1.372,1.372,0,0,0,24.427,13,1.422,1.422,0,0,0,22.988,11.575ZM7.122,11.441h0v2.332H19.805V11.441ZM13.45,8.318h0v.043h.662l1.59-.007c1.261,0,2.562-.01,3.842-.027.943-.013,1.9-.064,2.828-.114l.063,0a.606.606,0,0,0,.456-.185.6.6,0,0,0,.094-.474,3.7,3.7,0,0,0-.247-.886c-.284-.693-.588-1.393-.881-2.069l0-.008L21.64,4.1l-.113-.261c-.223-.517-.453-1.052-.693-1.572A1.792,1.792,0,0,0,19.2,1.13c-.908-.03-1.833-.031-2.727-.033H15.73c-1.293,0-2.607.006-3.877.011h-.01c-1.2,0-2.511.013-4.011.025a1.909,1.909,0,0,0-1.666.949,4.938,4.938,0,0,0-.44.792c-.608,1.489-1.2,2.981-1.7,4.244a2.129,2.129,0,0,0-.129.569.435.435,0,0,0,.381.522,2.214,2.214,0,0,0,.484.074c.675.016,1.4.032,2.119.033q1.493,0,2.986,0H13.45Z" transform="translate(0 0)" fill="#fff"/>
  </g>
</svg>
