<svg xmlns="http://www.w3.org/2000/svg" xmlns:xlink="http://www.w3.org/1999/xlink" width="21.521" height="19.88" viewBox="0 0 21.521 19.88">
  <defs>
    <clipPath id="clip-path">
      <path id="Clip_2" data-name="Clip 2" d="M0,0H21.521V19.88H0Z" transform="translate(0 0.044)" fill="none"/>
    </clipPath>
  </defs>
  <g id="Group_14" data-name="Group 14" transform="translate(0 -0.076)">
    <g id="Group_3" data-name="Group 3" transform="translate(0 0.033)">
      <path id="Clip_2-2" data-name="Clip 2" d="M0,0H21.521V19.88H0Z" transform="translate(0 0.044)" fill="none"/>
      <g id="Group_3-2" data-name="Group 3" clip-path="url(#clip-path)">
        <path id="Fill_1" data-name="Fill 1" d="M1.7,10.608H0L2.8,5.943l2.786,4.642H3.761c.074.454.116.853.206,1.24a7.855,7.855,0,0,0,7.875,6.012A7.893,7.893,0,0,0,12.8,2.144c-.351-.056-.709-.063-1.064-.09A.917.917,0,0,1,10.76.993.989.989,0,0,1,11.869,0,9.43,9.43,0,0,1,17.8,2.216a9.532,9.532,0,0,1,3.362,10.2,9.316,9.316,0,0,1-7.785,7.289A9.779,9.779,0,0,1,1.793,11.35c-.03-.227-.058-.453-.095-.742" transform="translate(0 0.044)" fill="#cfa500"/>
      </g>
    </g>
    <path id="Fill_4" data-name="Fill 4" d="M4.757,3.716c0,.877-.006,1.754,0,2.632a1.2,1.2,0,0,1-.373.921c-.9.894-1.795,1.8-2.7,2.7A.947.947,0,0,1,.3,10.056.979.979,0,0,1,.351,8.6c.742-.75,1.5-1.486,2.228-2.247A.9.9,0,0,0,2.811,5.8c.018-1.589.007-3.178.012-4.767C2.826.372,3.155.013,3.74,0A.893.893,0,0,1,4.753.97c.013.915,0,1.831,0,2.746" transform="translate(7.94 4.013)" fill="#cfa500"/>
    <path id="Fill_6" data-name="Fill 6" d="M1.224.611a.619.619,0,0,1-.6.616A.6.6,0,0,1,0,.641.61.61,0,0,1,.612,0a.633.633,0,0,1,.613.611" transform="translate(11.027 15.049)" fill="#cfa500"/>
    <path id="Fill_8" data-name="Fill 8" d="M.625,1.226A.6.6,0,0,1,0,.64.618.618,0,0,1,.616,0a.62.62,0,0,1,.607.611.606.606,0,0,1-.6.615" transform="translate(15.131 5.633)" fill="#cfa500"/>
    <path id="Fill_10" data-name="Fill 10" d="M1.222.607a.623.623,0,0,1-.6.618A.607.607,0,0,1,0,.6.6.6,0,0,1,.613,0a.616.616,0,0,1,.609.607" transform="translate(16.516 9.445)" fill="#cfa500"/>
    <path id="Fill_12" data-name="Fill 12" d="M.613,0A.613.613,0,1,1,0,.6.612.612,0,0,1,.613,0" transform="translate(15.131 13.111)" fill="#cfa500"/>
  </g>
</svg>
