<svg xmlns="http://www.w3.org/2000/svg" xmlns:xlink="http://www.w3.org/1999/xlink" width="59.211" height="59.211" viewBox="0 0 59.211 59.211">
  <defs>
    <clipPath id="clip-path">
      <path id="Clip_4" data-name="Clip 4" d="M0,0H25.278V12.657H0Z" transform="translate(0.007 0.002)" fill="none"/>
    </clipPath>
    <clipPath id="clip-path-2">
      <path id="Clip_9" data-name="Clip 9" d="M0,0H8.769V13.322H0Z" transform="translate(0 0.031)" fill="none"/>
    </clipPath>
  </defs>
  <g id="Group_2" data-name="Group 2" transform="translate(-235 -719)">
    <rect id="Rectangle_Copy_4" data-name="Rectangle Copy 4" width="59.211" height="59.211" rx="29.605" transform="translate(235 719)" fill="#cfa500"/>
    <g id="Group_13_Copy" data-name="Group 13 Copy" transform="translate(251.579 737.158)">
      <path id="Fill_1" data-name="Fill 1" d="M25.239,6.742a2.535,2.535,0,0,1-.4.065q-3.654.006-7.308,0-8.543,0-17.085,0a3.009,3.009,0,0,1-.434-.062L0,6.687C.17,6.559.338,6.43.509,6.3Q4.68,3.2,8.849.084a.239.239,0,0,1,.354,0c.938.738,1.884,1.466,2.829,2.2a.938.938,0,0,0,1.191-.005c.949-.733,1.9-1.465,2.842-2.2a.213.213,0,0,1,.315,0q4.355,3.253,8.715,6.5c.051.038.1.078.15.117l-.005.057" transform="translate(0.251 16.873)" fill="#fff"/>
      <g id="Group_5" data-name="Group 5" transform="translate(0.226 0.03)">
        <path id="Clip_4-2" data-name="Clip 4" d="M0,0H25.278V12.657H0Z" transform="translate(0.007 0.002)" fill="none"/>
        <g id="Group_5-2" data-name="Group 5" clip-path="url(#clip-path)">
          <path id="Fill_3" data-name="Fill 3" d="M4.82,12.657,0,9.106l.939-.692Q2.451,7.3,3.966,6.188A.305.305,0,0,0,4.1,5.906c-.005-.608,0-1.215,0-1.823a1.388,1.388,0,0,1,1.47-1.465c1.011,0,2.022,0,3.033,0A.576.576,0,0,0,8.972,2.5Q10.487,1.373,12.008.257a.913.913,0,0,1,1.273,0Q14.8,1.38,16.318,2.5a.576.576,0,0,0,.37.119c1.011-.005,2.022,0,3.033,0a1.385,1.385,0,0,1,1.462,1.455c0,.618,0,1.237,0,1.855a.264.264,0,0,0,.118.243q1.978,1.448,3.951,2.9a.234.234,0,0,1,.029.038l-4.811,3.545c0-.1,0-.161,0-.223q0-4.146,0-8.291a.706.706,0,0,0-.811-.807H5.622a.7.7,0,0,0-.8.8q0,4.146,0,8.291Z" transform="translate(0.007 0.002)" fill="#fff"/>
        </g>
      </g>
      <path id="Fill_6" data-name="Fill 6" d="M0,6.789,8.77,0V13.324L0,6.789" transform="translate(16.982 9.644)" fill="#fff"/>
      <g id="Group_10" data-name="Group 10" transform="translate(0 9.614)">
        <path id="Clip_9-2" data-name="Clip 9" d="M0,0H8.769V13.322H0Z" transform="translate(0 0.031)" fill="none"/>
        <g id="Group_10-2" data-name="Group 10" clip-path="url(#clip-path-2)">
          <path id="Fill_8" data-name="Fill 8" d="M8.769,6.788,0,13.322V0L8.769,6.788" transform="translate(0 0.031)" fill="#fff"/>
        </g>
      </g>
      <path id="Fill_11" data-name="Fill 11" d="M4.294,8.1c-.109,0-.223,0-.338-.008A5.132,5.132,0,0,1,2.12,7.706,3.313,3.313,0,0,1,.059,5.017a4.545,4.545,0,0,1,.93-3.6A3.6,3.6,0,0,1,3.461.049,5.592,5.592,0,0,1,4.185,0,4.04,4.04,0,0,1,5.878.348,3.217,3.217,0,0,1,6.971,5.416,2.413,2.413,0,0,1,5.52,6.31a1.994,1.994,0,0,1-.306.022c-.067,0-.137,0-.207-.009-.319-.028-.48-.158-.661-.535-.048.035-.1.071-.142.106-.1.073-.2.147-.3.211a1.483,1.483,0,0,1-.773.226,1.4,1.4,0,0,1-1.172-.647,2.357,2.357,0,0,1-.236-2.162A2.658,2.658,0,0,1,3.012,1.9,1.722,1.722,0,0,1,3.8,1.688a1.538,1.538,0,0,1,1.128.54c.01.011.02.02.034.034L5,2.3l.029-.127c.019-.081.037-.157.052-.232a.143.143,0,0,1,.16-.134h.006c.1,0,.206,0,.312,0s.19,0,.285,0h.013a.14.14,0,0,1,.115.037.168.168,0,0,1,.01.141c-.158.724-.316,1.462-.469,2.175l-.135.63c-.027.126-.052.252-.077.379a.308.308,0,0,0,.041.256.177.177,0,0,0,.142.063.353.353,0,0,0,.146-.036,2.3,2.3,0,0,0,.6-.39A2.394,2.394,0,0,0,7,3.1,2.427,2.427,0,0,0,5.907,1.269a3.264,3.264,0,0,0-1.782-.5A3.192,3.192,0,0,0,1.3,2.315,3.726,3.726,0,0,0,.937,5.332a2.426,2.426,0,0,0,1.47,1.634,4.861,4.861,0,0,0,1.832.373,4.642,4.642,0,0,0,1.615-.3,2.722,2.722,0,0,0,1.188-.861.312.312,0,0,1,.2-.1c.069-.005.144-.008.236-.008l.163,0,.133,0c.106,0,.176.008.2.045s-.011.106-.066.2A3.465,3.465,0,0,1,6.729,7.474,4.476,4.476,0,0,1,4.294,8.1ZM3.82,2.458a.855.855,0,0,0-.616.279,2.283,2.283,0,0,0-.657,2.1.778.778,0,0,0,.75.721,1.026,1.026,0,0,0,.567-.192c.021-.014.042-.03.061-.045A2.188,2.188,0,0,0,4.72,3.572c0-.018,0-.037,0-.056a.9.9,0,0,0,0-.122.934.934,0,0,0-.58-.875A.891.891,0,0,0,3.82,2.458Z" transform="translate(8.884 6.509)" fill="#fff"/>
    </g>
  </g>
</svg>
