<svg xmlns="http://www.w3.org/2000/svg" xmlns:xlink="http://www.w3.org/1999/xlink" width="59.211" height="59.211" viewBox="0 0 59.211 59.211">
  <defs>
    <clipPath id="clip-path">
      <path id="Clip_2" data-name="Clip 2" d="M0,0H15.216V20.684H0Z" transform="translate(0.018 0.026)" fill="none"/>
    </clipPath>
    <clipPath id="clip-path-2">
      <path id="Clip_5" data-name="Clip 5" d="M0,0H16.093V4.048H0Z" transform="translate(0 0.027)" fill="none"/>
    </clipPath>
  </defs>
  <g id="Group_4" data-name="Group 4" transform="translate(-235 -885)">
    <g id="Group_3" data-name="Group 3">
      <rect id="Rectangle_Copy_6" data-name="Rectangle Copy 6" width="59.211" height="59.211" rx="29.605" transform="translate(235 885)" fill="#cfa500"/>
    </g>
    <g id="Group_7_Copy" data-name="Group 7 Copy" transform="translate(256.316 903.158)">
      <g id="Group_3-2" data-name="Group 3" transform="translate(0.42 0.004)">
        <path id="Clip_2-2" data-name="Clip 2" d="M0,0H15.216V20.684H0Z" transform="translate(0.018 0.026)" fill="none"/>
        <g id="Group_3-3" data-name="Group 3" clip-path="url(#clip-path)">
          <path id="Fill_1" data-name="Fill 1" d="M7.606,20.684h0l-.054-.064c-.04-.047-.078-.091-.11-.137-.394-.553-.794-1.11-1.18-1.649-.917-1.278-1.866-2.6-2.772-3.919A28.913,28.913,0,0,1,.585,9.6,6.741,6.741,0,0,1,0,6.8,6.449,6.449,0,0,1,1.625,2.732,7.5,7.5,0,0,1,6.9.029C7.154.01,7.4,0,7.644,0a7.516,7.516,0,0,1,5.061,1.843,7.21,7.21,0,0,1,2.407,4.078,5.516,5.516,0,0,1-.324,3.172,32.509,32.509,0,0,1-3.3,6.178c-1.235,1.888-2.616,3.744-3.812,5.336-.011.014-.023.028-.037.045l-.027.031Zm0-16.722a3.516,3.516,0,0,0-.021,7.033H7.6a3.517,3.517,0,0,0,2.493-6A3.477,3.477,0,0,0,7.613,3.962h0Z" transform="translate(0.018 0.026)" fill="#fff"/>
        </g>
      </g>
      <g id="Group_6" data-name="Group 6" transform="translate(0 18.672)">
        <path id="Clip_5-2" data-name="Clip 5" d="M0,0H16.093V4.048H0Z" transform="translate(0 0.027)" fill="none"/>
        <g id="Group_6-2" data-name="Group 6" clip-path="url(#clip-path-2)">
          <path id="Fill_4" data-name="Fill 4" d="M9.894,1.373c.314-.453.616-.892.923-1.328A.144.144,0,0,1,10.931,0a14.235,14.235,0,0,1,4.1.9,2.277,2.277,0,0,1,.878.609.577.577,0,0,1,.058.768,1.826,1.826,0,0,1-.47.448,6.04,6.04,0,0,1-2.045.774,25.368,25.368,0,0,1-6.414.521,26.213,26.213,0,0,1-3.676-.368A9.481,9.481,0,0,1,1.06,2.989a3.44,3.44,0,0,1-.735-.454A.693.693,0,0,1,.332,1.356,3.641,3.641,0,0,1,1.543.719,14.635,14.635,0,0,1,4.593.058C4.771.036,4.949.014,5.128,0A.185.185,0,0,1,5.27.045c.313.432.619.868.935,1.316-.176.057-.341.1-.5.165a1.776,1.776,0,0,0-.35.166c-.227.149-.233.391.01.511a3.593,3.593,0,0,0,.879.32,9.161,9.161,0,0,0,3.673-.01,3.594,3.594,0,0,0,.706-.238c.35-.155.37-.4.043-.6a3.883,3.883,0,0,0-.617-.256,1.558,1.558,0,0,0-.153-.042" transform="translate(0 0.027)" fill="#fff"/>
        </g>
      </g>
    </g>
  </g>
</svg>
