<svg xmlns="http://www.w3.org/2000/svg" xmlns:xlink="http://www.w3.org/1999/xlink" width="59.211" height="59.211" viewBox="0 0 59.211 59.211">
  <defs>
    <clipPath id="clip-path">
      <path id="Clip_4" data-name="Clip 4" d="M0,0H11.842V11.842H0Z" transform="translate(0)" fill="none"/>
    </clipPath>
  </defs>
  <g id="Group_1" data-name="Group 1" transform="translate(-235 -618)">
    <rect id="Rectangle" width="59.211" height="59.211" rx="29.605" transform="translate(235 618)" fill="#cfa500"/>
    <g id="Group_4_Copy" data-name="Group 4 Copy" transform="translate(253.158 636.158)">
      <path id="Fill_1" data-name="Fill 1" d="M0,3.232A6.293,6.293,0,0,1,2.329.484,2.7,2.7,0,0,1,5.88.938a3.071,3.071,0,0,1,.785,1.368c.222.831.452,1.659.673,2.49a2.789,2.789,0,0,1-.774,2.892,6.532,6.532,0,0,1-.509.5.646.646,0,0,0-.22.841,11,11,0,0,0,7.477,7.279.513.513,0,0,0,.4-.107,6.906,6.906,0,0,0,.631-.619,2.813,2.813,0,0,1,3-.813c.849.239,1.7.46,2.551.7a2.857,2.857,0,0,1,1.281,4.806,9.683,9.683,0,0,0-.72.722,3.075,3.075,0,0,1-1.675,1.083H17.627c-.291-.027-.582-.052-.872-.083A18.219,18.219,0,0,1,8.738,19.27,18.278,18.278,0,0,1,.2,6.172C.108,5.6.065,5.029,0,4.457Z" transform="translate(0 1.6)" fill="#fff"/>
      <g id="Group_5" data-name="Group 5" transform="translate(11.842)">
        <path id="Clip_4-2" data-name="Clip 4" d="M0,0H11.842V11.842H0Z" transform="translate(0)" fill="none"/>
        <g id="Group_5-2" data-name="Group 5" clip-path="url(#clip-path)">
          <path id="Fill_3" data-name="Fill 3" d="M.749,0A20.331,20.331,0,0,1,2.78.344,11.618,11.618,0,0,1,11.5,9.1c.173.65.23,1.331.34,2v.749H10.369A10.249,10.249,0,0,0,7.319,4.523,10.236,10.236,0,0,0,0,1.474V0Z" transform="translate(0 0)" fill="#fff"/>
        </g>
      </g>
      <path id="Fill_6" data-name="Fill 6" d="M7.365,7.352H5.957C5.572,3.772,3.6,1.788,0,1.4V0A7.336,7.336,0,0,1,7.365,7.352" transform="translate(11.858 4.472)" fill="#fff"/>
      <path id="Fill_8" data-name="Fill 8" d="M2.919,2.916H1.491A1.557,1.557,0,0,0,0,1.434V.029C1.39-.234,2.977,1.322,2.919,2.916" transform="translate(11.855 8.911)" fill="#fff"/>
    </g>
  </g>
</svg>
