<?xml version="1.0" encoding="UTF-8"?>
<svg width="7px" height="14px" viewBox="0 0 7 14" version="1.1" xmlns="http://www.w3.org/2000/svg" xmlns:xlink="http://www.w3.org/1999/xlink">
    <title>Fill 12</title>
    <g id="Page-1" stroke="none" stroke-width="1" fill="none" fill-rule="evenodd">
        <g id="Aeraki-Refresh-&amp;-Reconnect-Copy" transform="translate(-346.000000, -6263.000000)" fill="#CFA500">
            <path d="M352.617833,6267.72694 C352.579856,6268.33869 352.626813,6268.88196 352.481454,6269.3678 C352.409616,6269.60876 351.964371,6269.9223 351.722106,6269.89536 C350.834609,6269.79696 350.670542,6270.18926 350.695611,6270.96825 C350.744064,6272.49143 350.691121,6274.01743 350.718621,6275.54173 C350.728723,6276.10671 350.534724,6276.33064 349.965073,6276.29902 C349.354451,6276.26516 348.740275,6276.29135 348.020214,6276.29135 C348.020214,6274.46005 348.016659,6272.75708 348.022085,6271.05412 C348.023955,6270.45079 348.10945,6269.90827 347.167701,6269.87833 C346.411907,6269.85439 346.775773,6269.10552 346.728443,6268.66963 C346.683357,6268.25544 346.607404,6267.71572 347.276393,6267.70879 C347.925927,6267.70225 348.047901,6267.34381 348.025452,6266.80053 C348.008802,6266.39757 348.013292,6265.98862 348.063055,6265.58921 C348.208788,6264.42371 348.869546,6263.74219 350.032046,6263.55399 C350.429212,6263.48963 350.836293,6263.46569 351.239258,6263.46026 C352.725403,6263.44081 352.701083,6263.44642 352.690045,6264.91947 C352.685555,6265.50577 352.526352,6265.81295 351.89721,6265.73756 C351.012894,6265.63186 350.646971,6266.03389 350.666052,6266.91484 C350.685883,6267.81861 351.330926,6267.63434 351.861665,6267.6768 C352.076056,6267.69402 352.290822,6267.70543 352.617833,6267.72694" id="Fill-12"></path>
        </g>
    </g>
</svg>