<?xml version="1.0" encoding="UTF-8"?>
<svg width="13px" height="14px" viewBox="0 0 13 14" version="1.1" xmlns="http://www.w3.org/2000/svg" xmlns:xlink="http://www.w3.org/1999/xlink">
    <title>Fill 8</title>
    <g id="Page-1" stroke="none" stroke-width="1" fill="none" fill-rule="evenodd">
        <g id="Aeraki-Refresh-&amp;-Reconnect-Copy" transform="translate(-277.000000, -6263.000000)" fill="#CFA500">
            <path d="M286.460136,6266.20493 C286.330117,6266.99571 286.711755,6267.24022 287.455576,6267.2535 C288.266183,6267.2681 288.529402,6266.93173 288.534079,6266.14956 C288.538943,6265.30453 288.155995,6265.12232 287.394776,6265.12587 C286.585478,6265.12942 286.338723,6265.47627 286.460136,6266.20493 M283.729738,6267.79696 C282.538989,6267.78537 281.570301,6268.71084 281.541866,6269.88718 C281.51212,6271.11759 282.464345,6272.10274 283.6912,6272.11079 C284.881575,6272.11846 285.847644,6271.19542 285.88244,6270.0172 C285.918359,6268.79558 284.962206,6267.80912 283.729738,6267.79696 M287.436307,6268.73871 C287.092458,6269.94181 286.970671,6271.07718 286.453775,6271.98863 C285.864294,6273.02784 284.756233,6273.49834 283.492524,6273.41678 C281.301845,6273.27553 280.168529,6271.63804 280.349246,6268.85657 C279.052985,6268.37878 278.676024,6268.60832 278.674714,6269.88176 C278.673405,6271.12732 278.668541,6272.37307 278.681262,6273.61863 C278.689493,6274.41951 279.050553,6274.94258 279.909052,6274.94632 C282.43142,6274.95755 284.953787,6274.9553 287.476155,6274.94576 C288.262816,6274.94277 288.694591,6274.52764 288.708435,6273.73275 C288.729762,6272.48794 288.762874,6271.24219 288.736684,6269.99775 C288.709183,6268.6854 288.599369,6268.61936 287.436307,6268.73871 M283.786236,6263.66068 C285.032173,6263.66068 286.278297,6263.64721 287.524234,6263.66405 C289.019171,6263.68444 289.983369,6264.61216 290.001702,6266.12318 C290.033131,6268.70934 290.028455,6271.29625 290.002825,6273.88241 C289.990478,6275.13508 289.12805,6276.16233 287.884732,6276.19619 C285.114487,6276.27139 282.339003,6276.27326 279.568945,6276.19301 C278.305236,6276.15615 277.471431,6275.26884 277.441686,6274.00008 C277.378266,6271.29326 277.373402,6268.58288 277.439815,6265.87624 C277.472928,6264.53471 278.495868,6263.68257 279.86116,6263.66442 C281.169207,6263.64702 282.477815,6263.66068 283.786236,6263.66068" id="Fill-8"></path>
        </g>
    </g>
</svg>