<?xml version="1.0" encoding="UTF-8"?>
<svg width="15px" height="14px" viewBox="0 0 15 14" version="1.1" xmlns="http://www.w3.org/2000/svg" xmlns:xlink="http://www.w3.org/1999/xlink">
    <title>Group 2</title>
    <g id="Page-1" stroke="none" stroke-width="1" fill="none" fill-rule="evenodd">
        <g id="Aeraki-Refresh-&amp;-Reconnect-Copy" transform="translate(-377.000000, -6262.000000)" fill="#CFA500">
            <g id="Group-2" transform="translate(377.071174, 6262.620568)">
                <path d="M7.60397953,5.12135873 C8.19888634,4.75842816 8.64001535,4.38782741 9.14886646,4.19625993 C11.2562958,3.40323793 13.3740144,4.79603076 13.5186254,7.11747687 C13.6250725,8.82325056 13.5691363,10.5387523 13.6007524,12.2495771 C13.6099192,12.7475777 13.4518387,12.9898432 12.9044496,12.9715096 C10.2571142,12.8824606 10.6593311,13.4143223 10.6634468,10.810576 C10.6647564,9.8465651 10.6765423,8.87918676 10.6047045,7.91929153 C10.5244482,6.8490205 9.96452486,6.29676738 9.13577103,6.34054354 C8.28681282,6.38525509 7.64120797,7.05929574 7.6125851,8.04107905 C7.57442126,9.34706788 7.56544154,10.656237 7.61370756,11.9614775 C7.64251751,12.7498226 7.31700247,13.0367997 6.5754268,12.9786185 C6.29686824,12.9567304 6.01494227,12.9464412 5.73619663,12.9608461 C5.03297188,12.9969521 4.69585802,12.6744303 4.69660633,11.9706443 C4.69941249,9.63666402 4.70147035,7.30249663 4.68984362,4.96851632 C4.68687829,4.40541271 4.92446686,4.17942295 5.48513847,4.22450865 C5.85405553,4.25387984 6.22821075,4.21683847 6.60012105,4.21365815 C7.18455152,4.20898121 7.69059646,4.30439079 7.60397953,5.12135873" id="Fill-17"></path>
                <path d="M3.11868149,8.60622182 C3.11830733,9.7879911 3.10203158,10.9699475 3.1252292,12.1513426 C3.13682802,12.7324057 2.95498858,12.9769161 2.32378871,12.9795352 C0.139470487,12.988702 0.139657565,13.010403 0.139844642,10.8307617 C0.14003172,8.93360764 0.164538887,7.03626648 0.12824583,5.13986071 C0.113653776,4.37901605 0.418216132,4.1171074 1.13229138,4.23216013 C1.25464014,4.25199035 1.37848552,4.26845318 1.5023309,4.27313013 C3.11905564,4.33299496 3.11905564,4.33224665 3.11924272,5.99405709 C3.11924272,6.86471631 3.11924272,7.7355626 3.11868149,8.60622182" id="Fill-19"></path>
                <path d="M1.5871706,3.02623912 C0.657394861,3.00191903 0.00168782455,2.38512414 6.19726492e-13,1.53335976 C-0.00205372773,0.624536715 0.765899877,-0.0463236082 1.75236013,0.00250364896 C2.66698259,0.0477764315 3.29874369,0.689078492 3.28059716,1.55337707 C3.26151525,2.44854345 2.56764438,3.05186875 1.5871706,3.02623912" id="Fill-21"></path>
            </g>
        </g>
    </g>
</svg>