<?xml version="1.0" encoding="UTF-8"?>
<svg width="34px" height="49px" viewBox="0 0 34 49" version="1.1" xmlns="http://www.w3.org/2000/svg" xmlns:xlink="http://www.w3.org/1999/xlink">
    <title>0A902090-C2DC-427C-A4BF-F52F46743C6A</title>
    <defs>
        <polygon id="path-1" points="0.0378272971 0.0556680162 32.1606498 0.0556680162 32.1606498 43.7212361 0.0378272971 43.7212361"></polygon>
        <polygon id="path-3" points="1.25303231e-06 0.0578998248 33.9734312 0.0578998248 33.9734312 8.60323887 1.25303231e-06 8.60323887"></polygon>
    </defs>
    <g id="Page-1" stroke="none" stroke-width="1" fill="none" fill-rule="evenodd">
        <g id="Aeraki-Refresh-&amp;-Reconnect" transform="translate(-433.000000, -4210.000000)">
            <g id="Group-7" transform="translate(433.000000, 4210.000000)">
                <g id="Group-3" transform="translate(0.885628, 0.007591)">
                    <mask id="mask-2" fill="white">
                        <use xlink:href="#path-1"></use>
                    </mask>
                    <g id="Clip-2"></g>
                    <path d="M8.68144463,15.8335843 C8.67355137,19.91677 11.986937,23.257104 16.0539916,23.2661056 C20.1655807,23.2751961 23.5033211,19.9731971 23.5113064,15.8887462 C23.5193257,11.762481 20.2106845,8.42353871 16.1091536,8.4188526 C12.0173646,8.41417637 8.68936614,11.736355 8.68144463,15.8335843 M16.0944142,43.7212361 C15.9672002,43.5668839 15.8464385,43.4372659 15.7445281,43.2941738 C12.9575848,39.3804593 10.1212993,35.5005883 7.40242282,31.540062 C4.98402707,28.0172887 2.90609185,24.2894927 1.27210906,20.3299152 C0.489657136,18.4338499 -0.024576164,16.4703505 0.0439334514,14.4013348 C0.152043269,11.1359628 1.35801493,8.28133224 3.4668206,5.82308325 C6.3956541,2.40898912 10.1338246,0.458204706 14.6154795,0.115972925 C19.176398,-0.23239499 23.3518788,0.912911184 26.860229,3.94624873 C29.5012336,6.2297128 31.2302948,9.11312627 31.9402518,12.5558135 C32.4133666,14.8503479 32.0970078,17.0729567 31.2569269,19.2505251 C29.4679593,23.8874178 26.9907958,28.1521571 24.2800797,32.2935412 C21.750854,36.1577239 19.0058515,39.8679972 16.231813,43.557395 C16.195439,43.6058515 16.1540676,43.6504491 16.0944142,43.7212361" id="Fill-1" fill="#CFA500" mask="url(#mask-2)"></path>
                </g>
                <g id="Group-6" transform="translate(0.000000, 39.418016)">
                    <mask id="mask-4" fill="white">
                        <use xlink:href="#path-3"></use>
                    </mask>
                    <g id="Clip-5"></g>
                    <path d="M20.8879934,2.95587677 C21.5501265,1.99939904 22.1887272,1.07221027 22.8370066,0.151916751 C22.8787576,0.0926429656 22.9993927,0.0526632085 23.0774545,0.0606971154 C26.0386134,0.365985577 28.9718117,0.804497723 31.7435096,1.96726341 C32.4489752,2.26325278 33.0924469,2.66083629 33.5965587,3.25249873 C34.0320344,3.76363234 34.1130061,4.3345458 33.7189018,4.87477859 C33.4528973,5.23959388 33.1048456,5.57600582 32.7263031,5.82151442 C31.4098178,6.6755124 29.9271508,7.12509489 28.4083629,7.45499114 C23.9444205,8.42443699 19.4260754,8.73472293 14.8678138,8.5546875 C12.2650177,8.45189145 9.67259615,8.24459135 7.10731275,7.77685349 C5.43714575,7.47232414 3.78488107,7.08429276 2.23686741,6.36763031 C1.68828441,6.11364499 1.15197368,5.79222546 0.685943826,5.40919155 C-0.245293522,4.64369307 -0.216637146,3.70549722 0.700619939,2.9199456 C1.45005061,2.27805541 2.33776569,1.89540106 3.25717358,1.57644863 C5.34681174,0.851625759 7.5062247,0.446261387 9.69549595,0.180320091 C10.0719509,0.134583755 10.4485324,0.0867598684 10.8264423,0.0589258603 C10.9259489,0.0516510628 11.0759995,0.0830908401 11.1261007,0.152296306 C11.7858932,1.06404985 12.4319585,1.98573507 13.0990258,2.92981402 C12.7276316,3.0505124 12.3786943,3.15027201 12.0405744,3.27830845 C11.7860197,3.37458882 11.5276695,3.48048456 11.301961,3.62908021 C10.8231528,3.94430035 10.8103112,4.45518092 11.3228365,4.70733173 C11.9109565,4.99680541 12.5385501,5.25692687 13.1779099,5.38205339 C15.7586285,5.8869876 18.3509868,5.90204327 20.9311994,5.36029226 C21.4414474,5.25306807 21.9441043,5.06974317 22.4222799,4.85826797 C23.1604504,4.53185096 23.2035299,4.01167131 22.5129302,3.58638031 C22.1176872,3.342896 21.6484944,3.21871837 21.2108679,3.04532515 C21.1171179,3.00825531 21.0157136,2.99060602 20.8879934,2.95587677" id="Fill-4" fill="#CFA500" mask="url(#mask-4)"></path>
                </g>
            </g>
        </g>
    </g>
</svg>