<svg id="Group_9" data-name="Group 9" xmlns="http://www.w3.org/2000/svg" xmlns:xlink="http://www.w3.org/1999/xlink" width="22.675" height="21.993" viewBox="0 0 22.675 21.993">
  <defs>
    <clipPath id="clip-path">
      <path id="Clip_2" data-name="Clip 2" d="M0,0H13.334V15.356H0Z" transform="translate(0 0.049)" fill="none"/>
    </clipPath>
    <clipPath id="clip-path-2">
      <path id="Clip_5" data-name="Clip 5" d="M0,0H10.956V9.9H0Z" transform="translate(0.024 0.002)" fill="none"/>
    </clipPath>
  </defs>
  <g id="Group_3" data-name="Group 3" transform="translate(0 6.587)">
    <path id="Clip_2-2" data-name="Clip 2" d="M0,0H13.334V15.356H0Z" transform="translate(0 0.049)" fill="none"/>
    <g id="Group_3-2" data-name="Group 3" clip-path="url(#clip-path)">
      <path id="Fill_1" data-name="Fill 1" d="M2.967,7.3c-.046-.074-.092-.143-.133-.215L.113,2.241c-.185-.33-.16-.392.206-.5L5.832.067C5.9.047,5.962.033,6.092,0c-.183.422-.337.8-.513,1.178-.265.563-.236.706.315.966a12.7,12.7,0,0,1,6.965,8.843,15.6,15.6,0,0,1,.474,4.028c0,.324-.012.336-.331.337l-3.322.005c-.349,0-.42-.06-.442-.414a13.169,13.169,0,0,0-1.173-4.9A9.937,9.937,0,0,0,4.353,5.838c-.541-.344-.671-.3-.9.295-.144.376-.292.751-.44,1.125,0,.012-.022.02-.047.042" transform="translate(0 0.049)" fill="#fff"/>
    </g>
  </g>
  <g id="Group_6" data-name="Group 6" transform="translate(11.696 7.876)">
    <path id="Clip_5-2" data-name="Clip 5" d="M0,0H10.956V9.9H0Z" transform="translate(0.024 0.002)" fill="none"/>
    <g id="Group_6-2" data-name="Group 6" clip-path="url(#clip-path-2)">
      <path id="Fill_4" data-name="Fill 4" d="M1.919,9.9c-.07-.159-.118-.261-.16-.366C1.314,8.416.875,7.292.422,6.174a5.365,5.365,0,0,0-.346-.631.412.412,0,0,1,.074-.558A13.315,13.315,0,0,1,4.574,1.95c.475-.181.538-.338.322-.8C4.776.9,4.643.648,4.534.387,4.493.289,4.455.108,4.5.074A.456.456,0,0,1,4.846.011c.624.156,1.242.332,1.863.5l3.674.993q.112.03.222.066c.39.128.441.243.225.6Q9.673,4.068,8.5,5.962c-.184.3-.365.6-.571.885-.189.259-.268.244-.4-.037s-.247-.547-.359-.825C7,5.542,6.8,5.43,6.388,5.677A25.342,25.342,0,0,0,4.156,7.141a7.249,7.249,0,0,0-2.081,2.52c-.033.065-.079.123-.156.242" transform="translate(0.024 0.002)" fill="#fff"/>
    </g>
  </g>
  <path id="Fill_7" data-name="Fill 7" d="M7.539,5.077c-.427,0-.8.017-1.161,0-.542-.031-.687.079-.686.625,0,1.15,0,2.3.025,3.451a1.978,1.978,0,0,1-.691,1.616A14.3,14.3,0,0,0,4,11.879c-.23.256-.3.244-.517-.017-.335-.411-.676-.819-1.037-1.207a1.984,1.984,0,0,1-.558-1.4c0-1.133,0-2.267.005-3.4,0-.094,0-.189,0-.283-.015-.409-.154-.525-.563-.514-.426.012-.852,0-1.323,0,.075-.11.12-.18.17-.247L3.513.309,3.559.247c.251-.328.3-.331.535,0q1.647,2.288,3.29,4.579c.044.061.08.129.155.252" transform="translate(7.672 0)" fill="#fff"/>
</svg>
