<?xml version="1.0" encoding="UTF-8"?>
<svg width="15px" height="13px" viewBox="0 0 15 13" version="1.1" xmlns="http://www.w3.org/2000/svg" xmlns:xlink="http://www.w3.org/1999/xlink">
    <title>Fill 10</title>
    <g id="Page-1" stroke="none" stroke-width="1" fill="none" fill-rule="evenodd">
        <g id="Aeraki-Refresh-&amp;-Reconnect-Copy" transform="translate(-310.000000, -6264.000000)" fill="#CFA500">
            <path d="M311.196773,6265.28599 C312.822664,6267.03498 314.695311,6268.1393 317.112167,6268.28073 C317.138919,6267.94043 317.157627,6267.66824 317.182134,6267.39641 C317.352749,6265.48691 319.285261,6264.16352 321.037991,6264.91371 C322.005556,6265.32771 322.852269,6265.80457 323.900465,6265.03905 C323.92703,6265.12005 323.953408,6265.20087 323.979973,6265.28187 C323.745939,6265.6506 323.512092,6266.01933 323.243262,6266.44363 C323.581498,6266.38283 323.875958,6266.32988 324.165367,6266.27788 C324.1953,6266.37085 324.237766,6266.45541 324.223735,6266.46645 C323.137189,6267.30306 323.083872,6268.53478 322.83562,6269.75228 C321.771148,6274.96931 316.391357,6277.77529 311.505264,6275.72866 C311.199766,6275.6007 310.908673,6275.43738 310.601679,6275.28622 C311.865201,6274.90496 313.070729,6274.54147 314.495887,6274.11138 C313.667507,6273.64499 313.085696,6273.42162 312.643818,6273.03736 C312.244408,6272.68996 311.539312,6272.27259 312.328592,6271.54056 C311.448766,6270.93573 310.79044,6270.18986 310.821869,6268.97703 C311.08621,6268.99836 311.317064,6269.01688 311.721151,6269.04962 C310.7418,6267.89703 310.496167,6266.71489 311.196773,6265.28599" id="Fill-10"></path>
        </g>
    </g>
</svg>