<?xml version="1.0" encoding="UTF-8"?>
<svg width="21px" height="20px" viewBox="0 0 21 20" version="1.1" xmlns="http://www.w3.org/2000/svg" xmlns:xlink="http://www.w3.org/1999/xlink">
    <title>023F3071-CA21-45A1-8EE2-63010DB15818</title>
    <g id="Page-1" stroke="none" stroke-width="1" fill="none" fill-rule="evenodd">
        <g id="rooms-copy" transform="translate(-235.000000, -2080.000000)" fill="#CFA500">
            <path d="M245.875369,2091.72466 C246.660642,2091.71303 247.474869,2090.79802 247.431876,2089.97513 C247.391516,2089.18622 246.576412,2088.40895 245.792016,2088.40984 C244.747911,2088.41163 244.138995,2089.06458 244.167072,2090.15133 C244.191639,2091.11018 244.874256,2091.73897 245.875369,2091.72466 M243.189649,2099.56627 C242.435963,2100.10026 241.439237,2100.12441 240.606584,2099.73085 L240.400395,2099.63335 C239.122024,2099.0296 238.562243,2097.44196 239.242228,2096.18348 C239.675663,2095.38295 240.231935,2094.64235 240.775923,2093.91069 C241.201461,2093.33914 241.723514,2092.84183 242.201697,2092.31142 C242.399989,2092.03772 242.302598,2091.96795 241.990244,2092.04845 C241.307627,2092.26759 240.638171,2092.58691 239.938883,2092.68261 C239.02551,2092.80784 238.061248,2092.91249 237.170687,2092.74254 C235.987075,2092.51625 235.128978,2091.78727 235.016671,2090.40088 C234.914015,2089.14061 235.271994,2088.07264 236.466135,2087.66209 C237.351432,2087.35798 238.365706,2087.28016 239.305401,2087.35171 C240.29774,2087.42774 241.269021,2087.80073 242.572837,2088.12362 C242.206084,2087.66745 242.077984,2087.42148 241.878814,2087.273 C240.655719,2086.35799 239.79148,2085.15853 239.151856,2083.77661 C238.700872,2082.80256 238.986905,2081.57091 239.823944,2080.78648 C240.781187,2079.88667 241.640161,2079.81869 242.749194,2080.43228 C244.223226,2081.24623 244.804064,2082.62009 245.151515,2084.16749 C245.260312,2084.6487 245.372619,2085.12812 245.482294,2085.60933 C245.606885,2086.01094 245.705154,2085.88751 245.794649,2085.59681 C245.906956,2085.20952 246.001715,2084.81596 246.134202,2084.43671 C246.692229,2082.84192 247.241481,2081.25338 248.840103,2080.28201 C249.418309,2079.9305 250.116719,2079.90903 250.72037,2080.20956 C251.569693,2080.63353 252.27249,2081.17735 252.394449,2082.29004 C252.581335,2083.97339 251.856603,2085.21757 250.742305,2086.31684 C250.274651,2086.77837 249.792959,2087.22739 249.317408,2087.68177 C249.112974,2087.8535 249.156844,2088.08069 249.477973,2087.98409 C249.951768,2087.86781 250.423809,2087.74527 250.898483,2087.63525 C251.72587,2087.44295 252.483944,2087.29268 253.170948,2087.26048 C256.615619,2087.09948 257.078886,2092.55202 253.649131,2092.91785 C252.898954,2092.99746 252.045244,2092.82215 250.994997,2092.42233 C250.570335,2092.26044 250.058811,2092.33557 249.412168,2092.28816 C250.401874,2093.5547 251.238036,2094.56006 252.000497,2095.61997 C252.683114,2096.56898 252.483944,2098.20314 251.637253,2099.25948 C251.03448,2100.01171 249.794714,2100.17986 248.674274,2099.68165 C247.44767,2099.13694 246.943165,2098.05197 246.547458,2096.85252 C246.35092,2096.25503 246.056114,2095.69153 245.805177,2095.11193 C245.746392,2094.89905 245.549854,2094.91426 245.476153,2095.14592 C245.333136,2095.51264 245.208546,2095.8892 245.04184,2096.2443 C244.577695,2097.23356 244.182865,2098.2738 243.587989,2099.1745 C243.487088,2099.32745 243.348458,2099.45357 243.189649,2099.56627" id="Fill-1"></path>
        </g>
    </g>
</svg>