<?xml version="1.0" encoding="UTF-8"?>
<svg width="34px" height="30px" viewBox="0 0 34 30" version="1.1" xmlns="http://www.w3.org/2000/svg" xmlns:xlink="http://www.w3.org/1999/xlink">
    <title>Group 13</title>
    <defs>
        <polygon id="path-1" points="0.00873024523 0.0022479564 32.0273134 0.0022479564 32.0273134 16.0341499 0.00873024523 16.0341499"></polygon>
        <polygon id="path-3" points="0 0.0389100817 11.1069687 0.0389100817 11.1069687 16.9139101 0 16.9139101"></polygon>
    </defs>
    <g id="Page-1" stroke="none" stroke-width="1" fill="none" fill-rule="evenodd">
        <g id="Aeraki-Refresh-&amp;-Reconnect-Copy" transform="translate(-1208.000000, -6224.000000)">
            <g id="Group-13" transform="translate(1208.000000, 6224.000000)">
                <path d="M32.2874918,29.9121131 C32.1171376,29.9406008 31.9468243,29.9936526 31.7764292,29.9939387 C28.690639,29.9989251 25.6048488,29.9975763 22.5190586,29.9975763 C15.3052439,29.9975763 8.09138828,29.9981485 0.877573569,29.9941431 C0.694262943,29.9940613 0.510952316,29.942767 0.327641689,29.9153828 C0.324290191,29.891064 0.320938692,29.866827 0.317628065,29.8425082 C0.532450954,29.680451 0.746374659,29.5172493 0.962137602,29.3564591 C4.48435831,26.731827 8.00780518,24.1089114 11.5261839,21.4791703 C11.6967016,21.3517316 11.7995763,21.3406553 11.9743856,21.4781894 C13.1626144,22.4130123 14.3611839,23.3347153 15.5575872,24.2591975 C16.0213202,24.6175627 16.5974101,24.6152738 17.0664973,24.2528624 C18.2682956,23.3243338 19.4715245,22.3975627 20.6663338,21.460124 C20.8217289,21.3382439 20.9146717,21.3482984 21.0650395,21.4605736 C24.7425736,24.2071676 28.4239905,26.9486526 32.1044673,29.691282 C32.1689632,29.7392657 32.2311703,29.7902738 32.2944401,29.8398106 C32.2921104,29.8639251 32.2898215,29.8880395 32.2874918,29.9121131" id="Fill-1" fill="#CFA500"></path>
                <g id="Group-5" transform="translate(0.286104, 0.038624)">
                    <mask id="mask-2" fill="white">
                        <use xlink:href="#path-1"></use>
                    </mask>
                    <g id="Clip-4"></g>
                    <path d="M6.11368937,16.0341499 C4.05697275,14.5188229 2.04198638,13.0343134 0.00873024523,11.5362752 C0.413444142,11.2380327 0.805610354,10.9490681 1.19781744,10.6601444 C2.47510627,9.71906812 3.75092371,8.77602997 5.03180926,7.83994005 C5.16333515,7.74380926 5.2076812,7.64068937 5.20629155,7.48288283 C5.19942507,6.71330518 5.20061035,5.94364578 5.20388011,5.17402725 C5.20858038,4.05756948 5.95003815,3.31979019 7.06543324,3.31893188 C8.34586921,3.31795095 9.62630518,3.31553951 10.9067411,3.32228338 C11.0880082,3.32322343 11.2293842,3.27274659 11.3732943,3.1659891 C12.6528311,2.21649319 13.9371499,1.27349591 15.2192616,0.327474114 C15.8084305,-0.107239782 16.2374223,-0.106585831 16.8319864,0.331970027 C18.1142207,1.27778747 19.3982943,2.22123433 20.6777084,3.17085286 C20.8223951,3.27826431 20.9661008,3.32305995 21.1462234,3.32211989 C22.4266185,3.31566213 23.7070545,3.31786921 24.9874905,3.31897275 C26.0903787,3.31995368 26.8360054,4.0613297 26.8394796,5.16160218 C26.8419319,5.94483106 26.8427084,6.72810082 26.8374768,7.5113297 C26.8365777,7.64637057 26.8739346,7.73608447 26.9865368,7.81852316 C28.6566458,9.04128883 30.323485,10.2685095 31.9907738,11.4950763 C32.0007875,11.5024332 32.0066322,11.5154714 32.0273134,11.5431008 C30.009139,13.0300218 27.9914142,14.5165341 25.9331444,16.0329646 C25.9331444,15.9068338 25.9331853,15.8286458 25.9331853,15.7504578 C25.9331444,12.249654 25.933267,8.74889101 25.9330627,5.24816894 C25.9330218,4.55113896 25.6069864,4.22551226 24.9055831,4.22547139 C18.9802153,4.22506267 13.0547657,4.2250218 7.12939782,4.22551226 C6.43943869,4.22555313 6.11377112,4.55154768 6.11373025,5.23737875 C6.11360763,8.73814169 6.11368937,12.2388638 6.11368937,15.7395858 L6.11368937,16.0341499 Z" id="Fill-3" fill="#CFA500" mask="url(#mask-2)"></path>
                </g>
                <path d="M21.509955,20.8143556 C25.2188787,17.9432657 28.9053638,15.0895463 32.6183338,12.2153501 L32.6183338,29.092312 C28.9135381,26.3314946 25.2236199,23.5817943 21.509955,20.8143556" id="Fill-6" fill="#CFA500"></path>
                <g id="Group-10" transform="translate(0.000000, 12.177589)">
                    <mask id="mask-4" fill="white">
                        <use xlink:href="#path-3"></use>
                    </mask>
                    <g id="Clip-9"></g>
                    <path d="M11.1069687,8.63660763 C7.39269074,11.4046185 3.70923025,14.1496594 -2.04359673e-05,16.9139101 L-2.04359673e-05,0.0389100817 C3.71070163,2.9113079 7.39526567,5.76347411 11.1069687,8.63660763" id="Fill-8" fill="#CFA500" mask="url(#mask-4)"></path>
                </g>
                <path d="M17.2315749,12.7689728 C17.2315749,12.6941771 17.2379918,12.6187684 17.2305531,12.5447084 C17.1803215,12.0465613 16.9923924,11.6260708 16.4956349,11.4362616 C16.0521744,11.2668065 15.6346676,11.3798583 15.3119837,11.7105531 C14.590594,12.4497629 14.2974605,13.3513161 14.4799128,14.3658392 C14.6381281,15.245485 15.4085232,15.5353488 16.1475695,15.0365068 C16.1756894,15.0175422 16.2027057,14.9966975 16.2293134,14.9755259 C16.9384414,14.4105531 17.1922153,13.6372153 17.2315749,12.7689728 M16.7586049,15.5767929 C16.5717384,15.7116294 16.3932916,15.8582371 16.1984142,15.9779918 C15.3369564,16.5072834 14.3006894,16.2858392 13.7353488,15.4445722 C13.1594223,14.5875695 13.1173651,13.6580191 13.4364932,12.7062343 C13.7306076,11.8291226 14.2162888,11.0878692 15.069,10.6474741 C15.9660163,10.1842316 16.7978011,10.3291635 17.4956894,11.0656349 C17.5178828,11.0890545 17.5423651,11.110267 17.5933733,11.1587411 C17.6318747,10.988673 17.6673924,10.847297 17.6951853,10.7044087 C17.7182371,10.5855531 17.7781553,10.5316839 17.9046948,10.5349946 C18.1565477,10.5416567 18.4088093,10.541248 18.660703,10.5352807 C18.8294632,10.5313161 18.8723787,10.5955668 18.8364523,10.7600354 C18.5778556,11.943564 18.3257575,13.1284823 18.0720245,14.3130327 C18.0378556,14.4727602 18.0049946,14.6327738 17.973891,14.7930736 C17.9124196,15.1104441 18.0969564,15.2875831 18.3913161,15.1514796 C18.6649946,15.0249401 18.9378147,14.8623515 19.1570518,14.6578283 C20.612951,13.2997766 20.397515,10.948455 18.7354169,9.85169755 C17.0450354,8.73622071 14.1270245,9.03180654 12.8937139,11.175703 C12.1999946,12.3815886 12.0462343,13.6646812 12.4406485,14.9985777 C12.7298174,15.9765613 13.3567112,16.6837275 14.3020381,17.067515 C15.7394223,17.6511253 17.2050899,17.7060572 18.6676512,17.1645041 C19.2622561,16.9442861 19.769436,16.5756621 20.1730872,16.073673 C20.2269973,16.0066431 20.3379646,15.9583324 20.4263706,15.9515068 C20.6498583,15.9343406 20.8755123,15.9452534 21.100267,15.9459074 C21.3913161,15.9468065 21.4213161,15.9954441 21.2659619,16.2521199 C20.8949673,16.8651989 20.3807166,17.3355531 19.7770381,17.7112888 C18.6985504,18.382733 17.5048038,18.5514932 16.2645041,18.4958256 C15.4636185,18.4598992 14.678673,18.3268202 13.9388093,18.0049946 C12.4415477,17.3536185 11.5728965,16.1993951 11.3290954,14.5994223 C11.0737275,12.9232643 11.4634823,11.3886866 12.5059619,10.0440409 C13.2969155,9.02379564 14.3678011,8.47308719 15.6378147,8.30657493 C16.6887548,8.16879564 17.7178692,8.24404087 18.6989183,8.68517166 C21.2093134,9.81389101 21.9036458,13.0348856 20.0837003,15.1041907 C19.5862888,15.6697357 19.0135913,16.117079 18.245485,16.2363025 C18.0325014,16.2694087 17.8098719,16.2720245 17.5948038,16.253346 C17.1813842,16.2174605 16.9842589,16.0464932 16.7586049,15.5767929" id="Fill-11" fill="#CFA500"></path>
            </g>
        </g>
    </g>
</svg>