<?xml version="1.0" encoding="UTF-8"?>
<svg width="30px" height="30px" viewBox="0 0 30 30" version="1.1" xmlns="http://www.w3.org/2000/svg" xmlns:xlink="http://www.w3.org/1999/xlink">
    <title>Group 10</title>
    <defs>
        <polygon id="path-1" points="1.72413793e-05 0 15 0 15 14.9999828 1.72413793e-05 14.9999828"></polygon>
    </defs>
    <g id="Page-1" stroke="none" stroke-width="1" fill="none" fill-rule="evenodd">
        <g id="Aeraki-Refresh-&amp;-Reconnect-Copy" transform="translate(-289.000000, -15.000000)">
            <g id="Group-10" transform="translate(289.000000, 15.000000)">
                <path d="M1.72413793e-05,6.12067241 C0.488034483,4.54394828 1.79544828,3.6267931 2.95010345,2.63912069 C4.16648276,1.59851724 6.21217241,1.94455172 7.44812069,3.21515517 C7.92760345,3.708 8.26467241,4.28084483 8.44294828,4.94774138 C8.72415517,5.99972414 9.01493103,7.0492069 9.29518966,8.10153448 C9.67001724,9.50860345 9.36156897,10.7356724 8.31475862,11.7642069 C8.09967241,11.9755862 7.90596552,12.213431 7.67062069,12.3985172 C7.2957931,12.6931724 7.2282931,12.9907586 7.39251724,13.4633448 C9.01243103,18.1241207 12.1501897,21.2131724 16.8638103,22.683431 C17.0080345,22.7283448 17.2433793,22.6506724 17.3698448,22.5481724 C17.6582931,22.3142931 17.9111379,22.0348103 18.1685517,21.7644655 C19.2295,20.6507586 20.496569,20.317569 21.9732931,20.7341207 C23.0483793,21.0373103 24.1301897,21.3173966 25.2039828,21.6254138 C27.7927759,22.3681724 28.9826897,25.7453276 26.8271724,27.7135172 C26.5093276,28.0036897 26.2000172,28.3066207 25.9146724,28.6285172 C25.3326034,29.285069 24.677431,29.8165345 23.7931207,29.9999828 L22.3276034,29.9999828 C21.9594138,29.9652414 21.5909655,29.9338621 21.2232931,29.8949828 C17.576569,29.5094655 14.1631207,28.4133448 11.0677759,26.4348103 C4.97096552,22.5378276 1.38122414,16.9861034 0.250706897,9.8442069 C0.136913793,9.12506897 0.0821724138,8.39653448 1.72413793e-05,7.67239655 L1.72413793e-05,6.12067241 Z" id="Fill-1" fill="#CFA500"></path>
                <g id="Group-5" transform="translate(15.000000, 0.000000)">
                    <mask id="mask-2" fill="white">
                        <use xlink:href="#path-1"></use>
                    </mask>
                    <g id="Clip-4"></g>
                    <path d="M0.948293103,-1.72413793e-05 C1.80682759,0.141448276 2.68536207,0.209206897 3.5207931,0.436189655 C9.31941379,2.01153448 13.0250172,5.70403448 14.5689828,11.5210172 C14.7876034,12.3446379 14.859931,13.2072241 15.0000172,14.0517069 L15.0000172,14.9999828 L13.1337241,14.9999828 C13.0622586,11.3751552 11.8087241,8.26618966 9.27113793,5.72912069 C6.73363793,3.19213793 3.62613793,1.93472414 1.72413793e-05,1.86739655 L1.72413793e-05,-1.72413793e-05 L0.948293103,-1.72413793e-05 Z" id="Fill-3" fill="#CFA500" mask="url(#mask-2)"></path>
                </g>
                <path d="M24.3493362,14.9766724 L22.5655431,14.9766724 C22.0779569,10.441931 19.5801121,7.92865517 15.0199397,7.43443103 L15.0199397,5.66805172 C19.7766638,5.52313793 24.3841638,9.5865 24.3493362,14.9766724" id="Fill-6" fill="#CFA500"></path>
                <path d="M18.7136466,14.9806293 L16.9040776,14.9806293 C16.756319,13.8843362 16.14175,13.228819 15.0158879,13.1037328 L15.0158879,11.3245948 C16.7761466,10.9914052 18.7872672,12.9618362 18.7136466,14.9806293" id="Fill-8" fill="#CFA500"></path>
            </g>
        </g>
    </g>
</svg>