<?xml version="1.0" encoding="UTF-8"?>
<svg width="21px" height="30px" viewBox="0 0 21 30" version="1.1" xmlns="http://www.w3.org/2000/svg" xmlns:xlink="http://www.w3.org/1999/xlink">
    <title>Group 7</title>
    <defs>
        <polygon id="path-1" points="0.0226963783 0.0334008097 19.2963899 0.0334008097 19.2963899 26.2327416 0.0226963783 26.2327416"></polygon>
        <polygon id="path-3" points="7.51819385e-07 0.0347398949 20.3840587 0.0347398949 20.3840587 5.16194332 7.51819385e-07 5.16194332"></polygon>
    </defs>
    <g id="Page-1" stroke="none" stroke-width="1" fill="none" fill-rule="evenodd">
        <g id="Aeraki-Refresh-&amp;-Reconnect-Copy" transform="translate(-1215.000000, -6295.000000)">
            <g id="Group-7" transform="translate(1215.000000, 6295.000000)">
                <g id="Group-3" transform="translate(0.531377, 0.004555)">
                    <mask id="mask-2" fill="white">
                        <use xlink:href="#path-1"></use>
                    </mask>
                    <g id="Clip-2"></g>
                    <path d="M5.20886678,9.50015056 C5.20413082,11.950062 7.1921622,13.9542624 9.63239499,13.9596634 C12.0993484,13.9651177 14.1019927,11.9839183 14.1067838,9.53324772 C14.1115954,7.05748861 12.1264107,5.05412323 9.66549216,5.05131156 C7.21041878,5.04850582 5.21361969,7.04181301 5.20886678,9.50015056 M9.65664853,26.2327416 C9.58032009,26.1401303 9.50786311,26.0623596 9.44671685,25.9765043 C7.77455086,23.6282756 6.07277961,21.300353 4.44145369,18.9240372 C2.99041624,16.8103732 1.74365511,14.5736956 0.763265435,12.1979491 C0.293794281,11.06031 -0.0147456984,9.88221027 0.0263600708,8.64080086 C0.0912259615,6.68157768 0.814808957,4.96879934 2.08009236,3.49384995 C3.83739246,1.44539347 6.08029479,0.274922824 8.7692877,0.0695837551 C11.5058388,-0.139436994 14.0111273,0.547746711 16.1161374,2.36774924 C17.7007401,3.73782768 18.7381769,5.46787576 19.1641511,7.53348811 C19.44802,8.91020876 19.2582047,10.243774 18.7541561,11.550315 C17.6807756,14.3324507 16.1944775,16.8912943 14.5680478,19.3761247 C13.0505124,21.6946344 11.4035109,23.9207983 9.7390878,26.134437 C9.71726341,26.1635109 9.69244054,26.1902695 9.65664853,26.2327416" id="Fill-1" fill="#CFA500" mask="url(#mask-2)"></path>
                </g>
                <g id="Group-6" transform="translate(0.000000, 23.650810)">
                    <mask id="mask-4" fill="white">
                        <use xlink:href="#path-3"></use>
                    </mask>
                    <g id="Clip-5"></g>
                    <path d="M12.5327961,1.77352606 C12.9300759,1.19963942 13.3132363,0.643326164 13.7022039,0.0911500506 C13.7272546,0.0555857794 13.7996356,0.0315979251 13.8464727,0.0364182692 C15.623168,0.219591346 17.383087,0.482698634 19.0461058,1.18035805 C19.4693851,1.35795167 19.8554681,1.59650177 20.1579352,1.95149924 C20.4192206,2.2581794 20.4678036,2.60072748 20.2313411,2.92486716 C20.0717384,3.14375633 19.8629074,3.34560349 19.6357819,3.49290865 C18.8458907,4.00530744 17.9562905,4.27505693 17.0450177,4.47299469 C14.3666523,5.0546622 11.6556452,5.24083376 8.92068826,5.1328125 C7.35901063,5.07113487 5.80355769,4.94675481 4.26438765,4.6661121 C3.26228745,4.48339448 2.27092864,4.25057566 1.34212045,3.82057819 C1.01297065,3.66818699 0.691184211,3.47533527 0.411566296,3.24551493 C-0.147176113,2.78621584 -0.129982287,2.22329833 0.420371964,1.75196736 C0.870030364,1.36683325 1.40265941,1.13724064 1.95430415,0.94586918 C3.20808704,0.510975455 4.50373482,0.267756832 5.81729757,0.108192055 C6.04317055,0.080750253 6.26911943,0.0520559211 6.49586538,0.0353555162 C6.55556933,0.0309906377 6.6455997,0.049854504 6.67566043,0.0913777834 C7.07153593,0.638429909 7.4591751,1.19144104 7.85941549,1.75788841 C7.63657895,1.83030744 7.4272166,1.89016321 7.22434464,1.96698507 C7.07161184,2.02475329 6.91660172,2.08829074 6.78117662,2.17744813 C6.4938917,2.36658021 6.48618674,2.67310855 6.79370192,2.82439904 C7.14657389,2.99808325 7.52313006,3.15415612 7.90674595,3.22923203 C9.45517713,3.53219256 11.0105921,3.54122596 12.5587196,3.21617535 C12.8648684,3.15184084 13.1664626,3.0418459 13.4533679,2.91496078 C13.8962702,2.71911058 13.9221179,2.40700278 13.5077581,2.15182819 C13.2706123,2.0057376 12.9890967,1.93123102 12.7265207,1.82719509 C12.6702707,1.80495319 12.6094281,1.79436361 12.5327961,1.77352606" id="Fill-4" fill="#CFA500" mask="url(#mask-4)"></path>
                </g>
            </g>
        </g>
    </g>
</svg>