<?xml version="1.0" encoding="UTF-8"?>
<svg width="13px" height="10px" viewBox="0 0 13 10" version="1.1" xmlns="http://www.w3.org/2000/svg" xmlns:xlink="http://www.w3.org/1999/xlink">
    <title>Group 3 Copy</title>
    <defs>
        <polygon id="path-1" points="0 6.45847381e-06 12.710381 6.45847381e-06 12.710381 9.98606316 0 9.98606316"></polygon>
    </defs>
    <g id="Page-1" stroke="none" stroke-width="1" fill="none" fill-rule="evenodd">
        <g id="Aeraki-Refresh-&amp;-Reconnect-Copy" transform="translate(-1652.000000, -5524.000000)">
            <g id="Group-3-Copy" transform="translate(1658.500000, 5529.000000) scale(-1, 1) translate(-1658.500000, -5529.000000) translate(1652.000000, 5524.000000)">
                <mask id="mask-2" fill="white">
                    <use xlink:href="#path-1"></use>
                </mask>
                <g id="Clip-2"></g>
                <path d="M2.16662222,4.37266825 L2.28860635,4.37266825 C5.53705079,4.37266825 8.78551111,4.3732873 12.0339873,4.37130317 C12.2515111,4.37116032 12.4387651,4.42943016 12.5709556,4.60622381 C12.7324,4.8221127 12.752019,5.06317619 12.6382889,5.30319206 C12.5254952,5.54122381 12.3214476,5.64601746 12.0592413,5.64595397 C9.52236825,5.64538254 6.98551111,5.64566825 4.44865397,5.64568413 C3.72647937,5.6457 3.00430476,5.64558889 2.28213016,5.64571587 C2.25932063,5.64573175 2.23649524,5.64784286 2.1959873,5.64985873 C2.25925714,5.7142873 2.31143175,5.76830317 2.36454286,5.82136667 C3.38600317,6.8421127 4.40768571,7.86266825 5.42906667,8.88349365 C5.65797143,9.11225556 5.70049524,9.41930317 5.53936825,9.6707 C5.36670159,9.9401127 5.05690794,10.0570016 4.77582857,9.94198571 C4.67901905,9.90238254 4.58835238,9.8321127 4.51332063,9.75733492 C3.13068571,8.3797 1.75090794,6.99922381 0.370114286,5.61971587 C0.344146032,5.59376349 0.315193651,5.57004921 0.284907937,5.54923968 C-0.0547428571,5.31589048 -0.0975206349,4.82966825 0.193304762,4.53979524 C1.39776508,3.33933492 2.60113016,2.13779524 3.8048127,0.936557143 C4.05190794,0.689953968 4.29838413,0.442715873 4.54560635,0.19622381 C4.7321619,0.0102396825 4.95546349,-0.0498396825 5.20054286,0.0432079365 C5.44487619,0.135969841 5.59943175,0.317811111 5.63060635,0.585414286 C5.65279683,0.775557143 5.59090794,0.940874603 5.45614603,1.07619206 C5.04373333,1.49038254 4.6301619,1.90341429 4.21674921,2.31660476 C3.55266984,2.98031905 2.88835238,3.64377937 2.22428889,4.30750952 C2.20805079,4.32373175 2.19376508,4.3418746 2.16662222,4.37266825" id="Fill-1" fill="#CFA500" mask="url(#mask-2)"></path>
            </g>
        </g>
    </g>
</svg>